<?xml version="1.0" standalone="no"?>
<!DOCTYPE svg PUBLIC "-//W3C//DTD SVG 20010904//EN"
 "http://www.w3.org/TR/2001/REC-SVG-20010904/DTD/svg10.dtd">
<svg version="1.0" xmlns="http://www.w3.org/2000/svg"
 width="1974.000000pt" height="1974.000000pt" viewBox="0 0 1974.000000 1974.000000"
 preserveAspectRatio="xMidYMid meet">
<metadata>
Created by potrace 1.11, written by Peter Selinger 2001-2013
</metadata>
<g transform="translate(0.000000,1974.000000) scale(0.100000,-0.100000)"
fill="#000000" stroke="none">
<path d="M90 9870 l0 -9870 9780 0 9780 0 0 9870 0 9870 -9780 0 -9780 0 0
-9870z m10325 9580 c232 -16 569 -48 720 -70 118 -17 387 -60 440 -70 28 -6
109 -21 180 -35 134 -26 160 -32 380 -85 328 -80 880 -250 1070 -330 11 -5 67
-26 125 -48 270 -102 754 -325 1005 -462 28 -15 85 -46 128 -69 42 -23 117
-65 165 -93 48 -28 112 -65 142 -83 130 -74 416 -263 625 -410 722 -511 1428
-1185 1986 -1895 390 -495 719 -1014 1014 -1595 97 -191 136 -275 244 -516 11
-26 41 -98 66 -160 25 -63 50 -123 55 -134 61 -138 242 -671 296 -875 8 -30
19 -68 24 -85 31 -108 108 -424 141 -580 19 -94 61 -315 70 -370 42 -269 56
-372 78 -590 73 -707 75 -1284 6 -1990 -18 -182 -46 -394 -85 -635 -13 -83
-52 -286 -69 -365 -5 -22 -16 -74 -25 -115 -101 -471 -286 -1063 -471 -1515
-494 -1204 -1188 -2254 -2091 -3160 -767 -769 -1621 -1382 -2586 -1853 -196
-96 -314 -152 -323 -152 -2 0 -38 -16 -79 -35 -42 -19 -79 -35 -82 -35 -3 0
-24 -9 -47 -19 -94 -43 -444 -173 -627 -234 -200 -66 -268 -87 -425 -132 -49
-14 -103 -29 -120 -34 -112 -34 -562 -136 -730 -166 -49 -9 -112 -20 -140 -25
-112 -21 -176 -30 -290 -45 -66 -8 -151 -20 -190 -25 -454 -63 -1249 -85
-1765 -49 -160 11 -493 43 -615 58 -133 17 -230 31 -287 41 -143 25 -178 31
-258 46 -77 14 -168 32 -275 55 -211 44 -534 128 -735 191 -168 52 -320 101
-365 118 -285 104 -380 141 -500 190 -77 32 -171 72 -210 90 -38 17 -92 41
-120 53 -238 105 -680 339 -980 520 -948 571 -1826 1342 -2530 2222 -763 955
-1343 2063 -1691 3230 -63 210 -95 331 -149 560 -41 174 -43 185 -60 275 -9
47 -20 101 -25 120 -5 19 -16 80 -24 135 -9 55 -20 125 -25 155 -33 194 -63
443 -91 770 -6 63 -15 254 -21 423 -25 707 37 1492 171 2162 4 22 13 67 19
100 6 33 16 78 21 100 5 22 21 90 35 150 63 267 104 416 186 680 69 218 56
181 192 556 20 53 46 121 60 150 13 30 28 65 32 79 4 14 23 58 41 98 19 41 34
75 34 77 0 3 13 33 29 67 15 35 38 86 51 113 67 150 197 405 335 660 129 237
392 650 586 920 434 604 957 1176 1524 1666 1040 899 2314 1589 3610 1954 33
9 71 21 85 25 60 20 361 93 575 140 53 12 283 55 365 69 59 10 155 25 330 51
127 19 342 41 595 62 310 25 956 29 1270 8z"/>
<path d="M9405 19260 c-206 -8 -380 -21 -540 -40 -44 -5 -102 -12 -130 -15
-170 -19 -305 -38 -400 -55 -27 -5 -93 -17 -145 -25 -262 -44 -685 -142 -975
-226 -217 -64 -678 -220 -790 -269 -11 -5 -71 -30 -134 -55 -62 -25 -132 -54
-155 -64 -22 -10 -63 -28 -91 -40 -122 -53 -162 -72 -365 -173 -910 -450
-1726 -1038 -2460 -1770 -629 -627 -1145 -1306 -1585 -2088 -120 -214 -331
-643 -417 -850 -22 -52 -48 -113 -58 -135 -9 -22 -39 -96 -65 -165 -26 -69
-51 -134 -55 -145 -31 -75 -137 -390 -180 -535 -12 -41 -28 -95 -36 -120 -33
-111 -116 -436 -144 -570 -12 -58 -26 -123 -31 -145 -5 -22 -16 -76 -23 -120
-8 -44 -20 -107 -26 -140 -50 -270 -100 -682 -121 -993 -17 -250 -23 -902 -10
-1117 12 -195 46 -579 61 -695 26 -202 47 -339 70 -465 6 -33 18 -98 26 -145
44 -240 100 -479 176 -750 17 -58 34 -118 38 -135 61 -225 265 -797 351 -983
16 -35 29 -65 29 -68 0 -13 154 -343 235 -504 456 -904 1029 -1694 1755 -2420
729 -729 1519 -1303 2406 -1749 210 -105 360 -176 459 -218 33 -14 84 -36 113
-49 29 -13 55 -24 58 -24 3 0 22 -7 42 -16 69 -30 77 -33 157 -65 336 -131
791 -275 1120 -353 61 -15 146 -36 190 -46 44 -11 139 -31 210 -45 72 -13 150
-29 175 -34 25 -6 92 -17 150 -26 58 -8 130 -20 160 -25 193 -32 555 -70 875
-90 206 -13 825 -13 1025 0 498 33 931 86 1300 160 25 5 81 17 125 25 44 9 96
20 115 25 19 5 69 17 110 26 162 36 517 132 640 174 30 10 84 27 120 38 57 18
212 72 404 142 80 29 452 183 551 228 139 64 506 248 619 311 60 34 110 61
112 61 14 0 442 265 594 368 583 393 989 731 1497 1244 419 423 776 861 1112
1361 100 149 321 503 321 513 0 3 11 21 23 42 13 20 45 78 72 127 26 50 51 95
55 100 24 31 265 528 317 650 14 33 35 83 48 111 91 201 276 712 352 974 13
47 28 99 33 115 27 95 82 309 115 450 14 61 30 126 34 145 5 19 12 55 16 80 4
25 11 61 15 80 12 48 47 237 61 335 6 44 15 103 19 130 29 197 64 531 82 775
16 216 16 968 0 1175 -32 415 -83 834 -132 1090 -7 33 -15 80 -20 105 -48 285
-187 824 -300 1162 -71 212 -186 523 -226 612 -7 17 -34 81 -60 141 -94 225
-287 622 -395 813 -33 57 -59 105 -59 108 0 9 -213 358 -297 486 -998 1530
-2440 2765 -4063 3480 -74 32 -159 70 -188 84 -29 13 -58 24 -65 24 -7 0 -17
4 -22 9 -6 4 -73 32 -150 60 -77 29 -149 57 -160 61 -33 14 -214 77 -305 105
-47 15 -110 35 -140 45 -30 10 -82 26 -115 35 -33 9 -71 21 -85 26 -70 24
-508 132 -645 159 -33 7 -78 16 -100 20 -96 19 -225 42 -280 51 -33 5 -87 14
-120 19 -212 35 -525 69 -815 90 -194 14 -819 20 -1065 10z m530 -1409 c245
-108 246 -464 1 -572 -139 -61 -301 -17 -385 105 -42 60 -66 156 -57 219 18
116 105 222 214 260 63 22 162 17 227 -12z m-3352 -3865 l2 -716 196 -196
c116 -116 201 -194 208 -190 8 5 11 176 11 607 l0 600 95 -3 95 -3 3 -711 2
-711 195 -196 c107 -108 201 -197 208 -197 9 0 12 128 12 605 l0 605 100 0
100 0 0 -717 0 -718 1018 -1017 c559 -560 1021 -1018 1027 -1018 5 0 466 456
1022 1012 l1013 1013 0 712 0 713 100 0 100 0 0 -598 c0 -329 3 -602 7 -606 4
-4 96 82 205 191 l198 198 0 712 0 713 100 0 100 0 0 -605 c0 -333 4 -605 8
-605 4 0 99 91 210 203 l202 204 0 709 -1 709 96 3 95 3 0 -606 c0 -475 3
-605 12 -605 7 0 123 110 258 245 l245 245 70 -70 70 -70 -243 -243 c-133
-133 -242 -250 -242 -260 0 -16 36 -17 600 -17 l600 0 0 -95 0 -95 -712 0
-712 0 -193 -192 c-107 -106 -193 -200 -193 -210 0 -17 31 -18 600 -18 l600 0
0 -95 0 -95 -712 0 -712 0 -193 -192 c-106 -106 -193 -198 -193 -205 0 -10
121 -13 598 -15 l597 -3 3 -97 3 -98 -713 0 -713 1 -1012 -1018 c-557 -560
-1013 -1022 -1013 -1028 0 -16 3604 -3615 3620 -3615 8 0 80 65 159 144 l144
144 150 -301 c82 -166 166 -338 187 -382 21 -44 115 -235 209 -425 93 -189
169 -346 167 -347 -3 -4 -253 118 -1129 550 l-328 161 146 146 c80 80 145 150
145 155 0 10 -3610 3625 -3621 3625 -3 0 -3591 -3584 -3639 -3636 -2 -3 63
-72 145 -154 82 -82 147 -151 145 -153 -3 -3 -97 -49 -210 -105 -254 -124
-905 -445 -1099 -541 -79 -39 -145 -70 -146 -69 -1 2 58 125 131 273 73 149
235 477 359 730 l226 459 147 -147 c81 -81 151 -147 155 -147 5 0 535 528
1179 1173 643 644 1461 1463 1816 1820 l647 647 -1030 1030 -1030 1030 -707 0
-708 0 0 95 0 95 600 0 c508 0 600 2 600 14 0 8 -89 102 -197 210 l-198 196
-707 0 -708 0 0 95 0 95 600 0 c476 0 600 3 600 13 0 7 -88 100 -195 207
l-195 195 -708 0 -707 0 -3 98 -3 97 601 0 c494 0 600 2 600 13 0 8 -108 121
-240 252 -132 132 -240 244 -240 249 0 12 121 136 133 136 4 0 114 -108 245
-240 130 -132 245 -240 255 -240 16 0 17 37 17 600 l0 599 93 3 c50 2 93 3 95
2 1 -1 3 -323 5 -718z m5982 -3765 c65 -30 88 -62 93 -129 5 -71 -9 -108 -48
-130 -31 -18 -39 -32 -17 -32 18 0 64 -49 76 -83 18 -46 13 -109 -11 -157 -18
-35 -35 -51 -73 -70 -49 -24 -56 -25 -310 -28 -256 -4 -259 -3 -242 15 15 18
17 49 17 316 0 271 -1 297 -17 306 -13 7 59 10 237 10 227 1 259 -1 295 -18z
m-10204 -18 c66 -29 124 -86 156 -151 23 -48 27 -70 27 -137 0 -67 -4 -89 -27
-136 -91 -189 -341 -237 -493 -97 -174 160 -114 450 108 530 66 23 164 20 229
-9z m15173 15 c157 -42 259 -209 223 -364 -19 -83 -58 -147 -115 -189 -172
-126 -418 -53 -487 144 -20 58 -19 155 1 214 18 53 91 140 138 164 80 42 161
52 240 31z m-1864 -120 c-1 -48 -3 -59 -11 -45 -9 15 -31 17 -220 17 l-210 0
3 -82 3 -83 149 0 c111 0 150 3 154 13 10 32 22 6 22 -50 0 -59 -1 -60 -18
-45 -16 14 -43 17 -165 17 l-147 0 0 -90 0 -90 216 0 c195 0 218 2 230 18 12
15 13 9 14 -45 0 -36 -4 -63 -10 -63 -5 0 -10 5 -10 10 0 6 -97 10 -272 10
-262 0 -271 1 -255 18 15 16 17 49 17 261 0 221 -2 242 -17 249 -10 4 101 9
246 12 199 4 265 8 269 18 8 26 12 10 12 -50z m-8830 -10 c-1 -48 -3 -59 -11
-45 -9 15 -31 17 -220 17 l-210 0 3 -82 3 -83 149 0 c111 0 150 3 154 13 10
32 22 6 22 -50 0 -59 -1 -60 -18 -45 -16 14 -43 17 -165 17 l-147 0 0 -90 0
-90 216 0 c195 0 218 2 230 18 12 15 13 9 14 -45 0 -36 -4 -63 -10 -63 -5 0
-10 5 -10 10 0 6 -97 10 -272 10 -262 0 -271 1 -255 18 15 16 17 49 17 261 0
221 -2 242 -17 249 -10 4 101 9 246 12 199 4 265 8 269 18 8 26 12 10 12 -50z
m560 25 c30 -9 69 -16 86 -16 l31 -1 -21 -58 c-21 -58 -36 -74 -36 -40 0 38
-144 79 -236 67 -75 -9 -116 -44 -112 -94 4 -50 45 -68 184 -81 209 -20 254
-46 254 -151 0 -51 -4 -63 -31 -94 -21 -23 -48 -40 -82 -50 -69 -20 -217 -19
-292 2 -33 9 -77 17 -98 17 -20 0 -36 3 -35 6 2 3 12 29 22 58 19 51 36 68 36
36 0 -29 104 -66 199 -71 134 -8 211 23 211 86 0 56 -46 75 -213 91 -115 11
-167 27 -204 62 -18 17 -23 32 -23 75 0 86 39 138 120 161 55 16 179 13 240
-5z m5561 8 c-7 -5 -12 -13 -10 -19 8 -19 144 -211 151 -212 4 0 45 48 92 108
76 95 83 108 69 120 -14 10 -3 12 63 12 58 -1 74 -3 62 -11 -10 -5 -69 -75
-133 -154 l-115 -145 0 -104 c0 -89 3 -107 18 -115 13 -8 -2 -10 -58 -10 -64
0 -73 1 -57 13 14 11 17 30 17 113 l0 99 -102 146 c-57 81 -112 151 -123 157
-15 7 0 10 60 10 49 0 75 -3 66 -8z m1055 -10 c40 -24 58 -75 52 -147 -6 -66
-34 -100 -96 -117 -23 -6 -41 -16 -38 -22 10 -28 139 -215 147 -215 5 0 9 -4
9 -10 0 -6 -29 -10 -66 -10 -57 0 -65 2 -54 15 10 11 -1 34 -57 124 l-68 110
-102 1 -103 0 0 -107 c0 -85 3 -110 17 -125 15 -17 13 -18 -52 -18 -65 0 -67
1 -52 18 15 16 17 49 17 260 0 219 -2 242 -17 251 -13 7 49 10 207 11 205 0
228 -2 256 -19z m442 12 c-10 -2 -18 -8 -18 -11 0 -9 340 -396 351 -400 5 -2
9 85 9 197 0 200 0 202 -22 211 -17 6 -3 9 52 9 55 0 69 -3 53 -9 -23 -9 -23
-10 -23 -254 0 -242 0 -245 22 -260 21 -15 17 -16 -67 -15 -66 0 -84 3 -67 10
15 6 21 13 16 21 -12 19 -354 407 -365 414 -7 4 -9 -67 -7 -206 3 -196 4 -213
22 -226 18 -13 13 -14 -49 -14 -65 0 -67 1 -52 18 15 16 17 49 17 260 0 219
-2 242 -17 251 -13 8 6 10 72 10 50 -1 82 -3 73 -6z m-10010 -14 c-16 -9 -18
-31 -18 -222 0 -228 -3 -244 -53 -281 -38 -28 -181 -35 -259 -12 -34 10 -56
12 -62 6 -23 -23 -24 -7 -5 43 25 65 35 75 44 47 10 -31 63 -50 139 -50 54 0
70 4 93 24 l28 24 3 203 c3 184 2 205 -14 216 -15 11 -7 13 52 13 52 -1 65 -3
52 -11z m565 4 c-7 -2 -13 -10 -13 -17 0 -25 221 -481 241 -498 21 -17 18 -18
-62 -17 -61 0 -78 3 -61 9 28 12 28 14 -8 94 l-30 67 -151 -3 -151 -3 -31 -69
c-30 -66 -30 -69 -12 -82 17 -12 11 -14 -50 -14 -66 0 -68 1 -51 19 9 10 63
126 121 257 77 177 101 241 93 251 -8 10 8 13 83 12 52 0 88 -3 82 -6z m535 0
c-10 -2 -18 -6 -18 -9 0 -10 193 -354 199 -354 7 1 184 324 189 345 2 7 -5 15
-15 18 -10 3 23 5 72 6 66 0 85 -2 73 -10 -16 -9 -18 -32 -18 -251 0 -211 2
-244 17 -260 15 -17 13 -18 -58 -18 -69 0 -72 1 -51 16 22 15 22 20 22 222 0
122 -4 202 -9 197 -5 -6 -57 -99 -116 -208 l-107 -198 -112 204 -111 205 -3
-205 c-2 -187 -1 -207 15 -219 16 -12 9 -13 -52 -13 -60 0 -68 1 -52 13 15 12
17 37 17 264 0 230 -1 251 -17 255 -10 3 20 5 67 5 47 0 77 -2 68 -5z m2824
-3496 c69 -34 121 -91 149 -166 27 -73 24 -212 -8 -282 -26 -58 -83 -116 -142
-143 -42 -19 -67 -21 -295 -24 l-248 -4 16 23 c14 20 16 62 16 311 0 252 -2
289 -16 303 -16 15 1 16 227 13 l244 -3 57 -28z m908 -109 c-1 -48 -3 -59 -11
-45 -9 15 -31 17 -220 17 l-210 0 3 -82 3 -83 149 0 c111 0 150 3 154 13 10
32 22 6 22 -50 0 -59 -1 -60 -18 -45 -16 14 -43 17 -165 17 l-147 0 0 -90 0
-90 216 0 c195 0 218 2 230 18 12 15 13 9 14 -45 0 -36 -4 -63 -10 -63 -5 0
-10 5 -10 10 0 6 -97 10 -272 10 -262 0 -271 1 -255 18 15 16 17 49 17 261 0
221 -2 242 -17 249 -10 4 101 9 246 12 199 4 265 8 269 18 8 26 12 10 12 -50z
m560 25 c30 -9 69 -16 86 -16 l31 -1 -21 -58 c-21 -58 -36 -74 -36 -40 0 38
-144 79 -236 67 -75 -9 -116 -44 -112 -94 4 -50 45 -68 184 -81 209 -20 254
-46 254 -151 0 -51 -4 -63 -31 -94 -21 -23 -48 -40 -82 -50 -69 -20 -217 -19
-292 2 -33 9 -77 17 -98 17 -20 0 -36 3 -35 6 2 3 12 29 22 58 19 51 36 68 36
36 0 -29 104 -66 199 -71 134 -8 211 23 211 86 0 56 -46 75 -213 91 -115 11
-167 27 -204 62 -18 17 -23 32 -23 75 0 86 39 138 120 161 55 16 179 13 240
-5z m1215 -19 c39 -16 75 -27 82 -26 12 3 -2 -40 -29 -92 -9 -17 -11 -17 -21
5 -16 32 -106 76 -173 85 -158 19 -283 -88 -272 -235 5 -77 40 -130 105 -162
65 -32 216 -34 278 -4 36 18 40 24 43 63 l3 42 -65 0 c-45 0 -69 -5 -80 -16
-15 -14 -16 -10 -16 42 0 45 3 55 12 46 8 -8 50 -12 124 -12 l112 0 -11 -36
c-8 -26 -8 -46 1 -77 10 -39 9 -44 -11 -61 -12 -10 -47 -31 -77 -45 -50 -24
-66 -26 -180 -26 -135 1 -169 10 -229 61 -79 66 -111 189 -76 293 23 69 93
141 165 170 81 31 218 25 315 -15z m-727 15 c-16 -9 -18 -32 -18 -251 0 -211
2 -244 17 -260 15 -17 13 -18 -52 -18 -65 0 -67 1 -52 18 15 16 17 49 17 260
0 219 -2 242 -17 251 -14 8 0 10 52 10 52 0 66 -2 53 -10z m1200 4 c-10 -2
-18 -8 -18 -11 0 -9 340 -396 351 -400 5 -2 9 85 9 197 0 200 0 202 -22 211
-17 6 -3 9 52 9 55 0 69 -3 53 -9 -23 -9 -23 -10 -23 -254 0 -242 0 -245 22
-260 21 -15 17 -16 -67 -15 -66 0 -84 3 -67 10 15 6 21 13 16 21 -12 19 -354
407 -365 414 -7 4 -9 -67 -7 -206 3 -196 4 -213 22 -226 18 -13 13 -14 -49
-14 -65 0 -67 1 -52 18 15 16 17 49 17 260 0 219 -2 242 -17 251 -13 8 6 10
72 10 50 -1 82 -3 73 -6z m-1581 -1107 c50 -25 82 -66 89 -111 7 -53 -14 -107
-53 -131 -15 -10 -30 -19 -32 -21 -2 -1 10 -15 26 -30 16 -15 35 -37 42 -48 9
-14 14 -16 18 -7 21 51 140 162 174 162 5 0 9 -32 9 -72 0 -62 -2 -69 -13 -54
-12 17 -15 17 -43 -8 -17 -14 -45 -52 -63 -85 l-31 -60 30 -34 c38 -44 84 -64
105 -47 13 11 15 6 15 -39 l0 -51 -34 0 c-49 0 -86 16 -127 56 l-35 35 -20
-22 c-37 -41 -94 -62 -185 -67 -119 -6 -179 9 -223 59 -42 46 -50 72 -44 145
5 64 25 94 91 143 l46 35 -25 29 c-19 23 -24 40 -24 88 0 53 3 63 33 95 17 19
50 41 72 50 50 18 158 13 202 -10z m-976 -1190 c41 -14 86 -26 98 -26 22 0 21
-2 -13 -62 -32 -56 -65 -92 -50 -55 14 37 -131 97 -235 97 -118 0 -217 -53
-262 -141 -27 -53 -26 -149 2 -206 75 -155 326 -205 462 -92 20 17 37 38 37
48 0 36 14 29 56 -27 46 -61 53 -78 29 -68 -9 3 -34 -7 -57 -24 -129 -94 -376
-94 -511 -1 -116 79 -167 240 -120 377 30 89 145 180 257 204 77 17 224 5 307
-24z m2419 -118 c-1 -48 -3 -59 -11 -45 -9 15 -31 17 -220 17 l-210 0 3 -82 3
-83 149 0 c111 0 150 3 154 13 10 32 22 6 22 -50 0 -59 -1 -60 -18 -45 -16 14
-43 17 -165 17 l-147 0 0 -90 0 -90 216 0 c195 0 218 2 230 18 12 15 13 9 14
-45 0 -36 -4 -63 -10 -63 -5 0 -10 5 -10 10 0 6 -97 10 -272 10 -262 0 -271 1
-255 18 15 16 17 49 17 261 0 221 -2 242 -17 249 -10 4 101 9 246 12 199 4
265 8 269 18 8 26 12 10 12 -50z m-1649 14 c141 -68 201 -235 133 -370 -31
-63 -80 -105 -154 -133 -45 -17 -71 -20 -145 -17 -108 5 -165 27 -224 88 -98
101 -93 279 11 376 68 65 126 84 243 81 69 -2 101 -8 136 -25z m762 4 c57 -21
103 -61 128 -113 20 -40 24 -64 24 -138 0 -77 -4 -98 -25 -139 -56 -110 -131
-136 -385 -136 -120 1 -165 4 -152 11 15 9 17 33 17 264 0 233 -1 254 -17 258
-10 3 70 5 177 5 139 1 206 -3 233 -12z m-561 -1516 c188 -88 236 -335 97
-493 -58 -67 -133 -100 -230 -100 -88 -1 -124 11 -196 64 -61 45 -110 134
-120 216 -17 145 88 296 232 334 52 14 167 3 217 -21z"/>
<path d="M12150 10070 l0 -90 164 0 c214 0 246 12 246 90 0 78 -34 90 -252 90
l-158 0 0 -90z"/>
<path d="M12150 9791 l0 -111 184 0 c183 0 185 0 214 25 37 31 48 73 32 120
-20 60 -49 68 -252 73 l-178 4 0 -111z"/>
<path d="M13645 10068 c-3 -8 -5 -48 -3 -89 l3 -74 151 0 c180 0 194 6 194 85
0 77 -13 83 -190 88 -125 4 -151 2 -155 -10z"/>
<path d="M4902 10030 c-11 -25 -36 -83 -57 -128 -20 -46 -35 -86 -32 -88 2 -3
57 -3 121 -2 l117 3 -64 130 -65 130 -20 -45z"/>
<path d="M7960 6331 l0 -251 153 0 c179 0 219 9 267 59 44 46 60 97 60 193 0
61 -5 84 -27 129 -24 46 -36 58 -85 83 -54 27 -68 29 -213 34 l-155 5 0 -252z"/>
<path d="M9749 5351 c-20 -20 -29 -39 -29 -61 0 -22 9 -41 29 -61 25 -25 37
-29 81 -29 44 0 56 4 81 29 20 20 29 39 29 61 0 22 -9 41 -29 61 -25 25 -37
29 -81 29 -44 0 -56 -4 -81 -29z"/>
<path d="M9723 5101 c-67 -31 -93 -112 -58 -181 60 -116 305 -65 305 62 0 37
-45 94 -93 117 -53 26 -99 26 -154 2z"/>
<path d="M9512 4085 c-126 -39 -187 -172 -133 -291 62 -136 275 -168 385 -58
40 40 56 83 56 149 0 99 -55 171 -152 200 -62 18 -99 18 -156 0z"/>
<path d="M10180 3885 l0 -207 138 4 c131 3 141 5 179 30 61 40 87 101 81 189
-6 81 -32 126 -93 161 -35 20 -56 23 -172 26 l-133 4 0 -207z"/>
</g>
</svg>
